<svg width="16" height="16" viewBox="0 0 16 16" fill="none" xmlns="http://www.w3.org/2000/svg">
<rect width="16" height="16" rx="6" fill="#242229"/>
<rect x="2.66699" y="2.66699" width="10.6667" height="10.6667" rx="5.33333" fill="black" fill-opacity="0.2"/>
<path d="M9.77778 8L7.11111 9.77778V6.22222L9.77778 8ZM8 4C7.20888 4 6.43552 4.2346 5.77772 4.67412C5.11992 5.11365 4.60723 5.73836 4.30448 6.46927C4.00173 7.20017 3.92252 8.00444 4.07686 8.78036C4.2312 9.55629 4.61216 10.269 5.17157 10.8284C5.73098 11.3878 6.44372 11.7688 7.21964 11.9231C7.99556 12.0775 8.79983 11.9983 9.53074 11.6955C10.2616 11.3928 10.8864 10.8801 11.3259 10.2223C11.7654 9.56448 12 8.79113 12 8C12 6.93913 11.5786 5.92172 10.8284 5.17157C10.0783 4.42143 9.06087 4 8 4Z" stroke="#E11D48" stroke-width="0.666667" stroke-linecap="round" stroke-linejoin="round"/>
</svg>
