<svg width="16" height="16" viewBox="0 0 16 16" fill="none" xmlns="http://www.w3.org/2000/svg">
<path d="M4.40998 14C4.10331 14 3.84731 13.8973 3.64198 13.692C3.43665 13.4867 3.33376 13.2304 3.33331 12.9233V3.07667C3.33331 2.77 3.4362 2.514 3.64198 2.30867C3.84776 2.10333 4.10376 2.00044 4.40998 2H11.59C11.8966 2 12.1526 2.10289 12.358 2.30867C12.5633 2.51444 12.6662 2.77044 12.6666 3.07667V12.9233C12.6666 13.23 12.564 13.486 12.3586 13.6913C12.1533 13.8967 11.8971 13.9996 11.59 14H4.40998ZM7.99998 6.74333L9.33331 5.94867L10.6666 6.74333V2.66667H7.99998V6.74333Z" fill="#BBBBBB"/>
</svg>
