<svg width="16" height="16" viewBox="0 0 16 16" fill="none" xmlns="http://www.w3.org/2000/svg">
<g clip-path="url(#clip0_4001_3211)">
<path fill-rule="evenodd" clip-rule="evenodd" d="M11.6666 2C11.8736 2 12.0778 2.04819 12.2629 2.14076C12.4481 2.23333 12.6091 2.36774 12.7333 2.53333L14.5253 4.92267C14.6153 5.04051 14.6631 5.18509 14.6613 5.33333H14.6666V6C14.6673 6.64968 14.4302 7.27714 14 7.764V12.6667C14 13.0203 13.8595 13.3594 13.6095 13.6095C13.3594 13.8595 13.0203 14 12.6666 14H3.33332C2.97969 14 2.64056 13.8595 2.39051 13.6095C2.14046 13.3594 1.99998 13.0203 1.99998 12.6667V7.764C1.56953 7.27731 1.33235 6.64974 1.33332 6V5.33333H1.33865C1.33682 5.18509 1.3847 5.04051 1.47465 4.92267L3.26665 2.53333C3.39085 2.36774 3.55189 2.23333 3.73703 2.14076C3.92217 2.04819 4.12632 2 4.33332 2H11.6666ZM13.3333 6H10.6666C10.6651 6.34599 10.7981 6.67903 11.0376 6.92877C11.277 7.17851 11.6042 7.32538 11.9499 7.33836C12.2957 7.35134 12.6329 7.22942 12.8905 6.99834C13.148 6.76726 13.3056 6.44513 13.33 6.1L13.3333 6ZM9.33332 6H6.66665C6.6651 6.34599 6.79811 6.67903 7.03757 6.92877C7.27703 7.17851 7.60419 7.32538 7.94994 7.33836C8.29569 7.35134 8.63295 7.22942 8.89046 6.99834C9.14798 6.76726 9.30558 6.44513 9.32998 6.1L9.33332 6ZM5.33332 6H2.66665C2.6651 6.34599 2.79811 6.67903 3.03757 6.92877C3.27703 7.17851 3.60419 7.32538 3.94994 7.33836C4.29569 7.35134 4.63295 7.22942 4.89046 6.99834C5.14798 6.76726 5.30558 6.44513 5.32998 6.1L5.33332 6Z" fill="#BBBBBB"/>
</g>
<defs>
<clipPath id="clip0_4001_3211">
<rect width="16" height="16" fill="white"/>
</clipPath>
</defs>
</svg>
