<svg width="16" height="16" viewBox="0 0 16 16" fill="none" xmlns="http://www.w3.org/2000/svg">
<g clip-path="url(#clip0_4001_3217)">
<path d="M2.6 5.6C3.5 3.5 5.6 2 8 2C11 2 13.4 4.2 13.9 7H15.9C15.4 3.1 12.1 0 8 0C5 0 2.4 1.6 1.1 4.1L0 3V7H4L2.6 5.6ZM16 9H11.9L13.4 10.4C12.5 12.5 10.4 14 7.9 14C5 14 2.5 11.8 2 9H0C0.5 12.9 3.9 16 7.9 16C10.9 16 13.5 14.3 14.9 11.9L16 13V9Z" fill="#BBBBBB"/>
</g>
<defs>
<clipPath id="clip0_4001_3217">
<rect width="16" height="16" fill="white"/>
</clipPath>
</defs>
</svg>
