<svg width="20" height="17" viewBox="0 0 20 17" fill="none" xmlns="http://www.w3.org/2000/svg">
<path d="M18 14C18.3852 14.0002 18.7556 14.1486 19.0344 14.4144C19.3132 14.6802 19.479 15.0431 19.4975 15.4279C19.516 15.8127 19.3858 16.1898 19.1338 16.4812C18.8818 16.7726 18.5274 16.9558 18.144 16.993L18 17H2C1.61478 16.9998 1.24441 16.8514 0.965613 16.5856C0.686821 16.3198 0.520988 15.9569 0.502476 15.5721C0.483964 15.1873 0.614192 14.8102 0.866175 14.5188C1.11816 14.2274 1.47258 14.0442 1.856 14.007L2 14H18ZM18 7C18.3978 7 18.7794 7.15804 19.0607 7.43934C19.342 7.72064 19.5 8.10218 19.5 8.5C19.5 8.89782 19.342 9.27936 19.0607 9.56066C18.7794 9.84196 18.3978 10 18 10H2C1.60218 10 1.22064 9.84196 0.93934 9.56066C0.658035 9.27936 0.5 8.89782 0.5 8.5C0.5 8.10218 0.658035 7.72064 0.93934 7.43934C1.22064 7.15804 1.60218 7 2 7H18ZM18 0C18.3978 0 18.7794 0.158035 19.0607 0.43934C19.342 0.720644 19.5 1.10218 19.5 1.5C19.5 1.89782 19.342 2.27936 19.0607 2.56066C18.7794 2.84196 18.3978 3 18 3H2C1.60218 3 1.22064 2.84196 0.93934 2.56066C0.658035 2.27936 0.5 1.89782 0.5 1.5C0.5 1.10218 0.658035 0.720644 0.93934 0.43934C1.22064 0.158035 1.60218 0 2 0H18Z" fill="white"/>
</svg>
